<?xml version="1.0" encoding="UTF-8"?>
<svg id="Layer_1" data-name="Layer 1" xmlns="http://www.w3.org/2000/svg" viewBox="0 0 1366 768">
  <defs>
    <style>
      .cls-1 {
        fill: #e0e0e0;
      }
    </style>
  </defs>
  <rect class="cls-1" x="255.25" y="309.5" width="61" height="159" rx="30.5" ry="30.5"/>
  <rect class="cls-1" x="333.25" y="264.5" width="61" height="249" rx="30.5" ry="30.5"/>
  <rect class="cls-1" x="411.25" y="197.5" width="61" height="373" rx="30.5" ry="30.5"/>
  <rect class="cls-1" x="489.25" y="239" width="61" height="290" rx="30.5" ry="30.5"/>
  <rect class="cls-1" x="567.25" y="259.5" width="61" height="249" rx="30.5" ry="30.5"/>
  <rect class="cls-1" x="641.25" y="130" width="61" height="508" rx="30.5" ry="30.5"/>
  <rect class="cls-1" x="723.25" y="210" width="61" height="358" rx="30.5" ry="30.5"/>
  <rect class="cls-1" x="805.25" y="264" width="61" height="250" rx="30.5" ry="30.5"/>
  <rect class="cls-1" x="887.75" y="203" width="61" height="373" rx="30.5" ry="30.5"/>
  <rect class="cls-1" x="968.75" y="259" width="61" height="261" rx="30.5" ry="30.5"/>
  <rect class="cls-1" x="1049.75" y="309" width="61" height="161" rx="30.5" ry="30.5"/>
</svg>